<?xml version="1.0" encoding="UTF-8"?>
<svg id="_x23_Layer_1" xmlns="http://www.w3.org/2000/svg" version="1.1" viewBox="0 0 1596 617.33">
  <!-- Generator: Adobe Illustrator 30.4.0, SVG Export Plug-In . SVG Version: 2.1.4 Build 226)  -->
  <defs>
    <style>
      .st0 {
        fill: #f7991d;
      }

      .st1 {
        fill: #2a4063;
      }
    </style>
  </defs>
  <g>
    <path class="st0" d="M90.04,289.56c-14.64,0-26.18-4.18-34.62-12.55-8.44-8.37-12.65-19.94-12.65-34.72,0-16.46,5.2-29.45,15.59-38.97,10.39-9.51,24.12-14.27,41.2-14.27h31.28v84.31h24.7v16.19h-65.49ZM100.16,205.15c-12.42,0-22.02,3.27-28.8,9.82-6.78,6.55-10.17,15.59-10.17,27.13,0,20.85,9.45,31.28,28.34,31.28h23.69v-68.22h-13.06Z"/>
    <path class="st0" d="M151.38,273.37h28.34v-84.31h18.42v64.48c0,6.07,1.87,10.9,5.62,14.47,3.75,3.58,8.72,5.36,14.93,5.36h7.49v16.19h-4.76c-11.54,0-19.3-3.95-23.28-11.84v11.84h-46.76v-16.19ZM171.42,297.36c7.22,0,10.83,3.88,10.83,11.64s-3.61,11.54-10.83,11.54-10.73-3.85-10.73-11.54,3.58-11.64,10.73-11.64ZM203.2,297.36c7.15,0,10.73,3.88,10.73,11.64s-3.58,11.54-10.73,11.54-10.83-3.85-10.83-11.54,3.61-11.64,10.83-11.64Z"/>
    <path class="st0" d="M222.03,273.37h28.34v-84.31h18.42v64.48c0,6.07,1.87,10.9,5.62,14.47,3.75,3.58,8.72,5.36,14.93,5.36h7.49v16.19h-4.76c-11.54,0-19.3-3.95-23.28-11.84v11.84h-46.76v-16.19ZM242.07,146.74c7.22,0,10.83,3.88,10.83,11.64s-3.61,11.54-10.83,11.54-10.73-3.85-10.73-11.54,3.58-11.64,10.73-11.64ZM273.85,146.74c7.15,0,10.73,3.88,10.73,11.64s-3.58,11.54-10.73,11.54-10.83-3.85-10.83-11.54,3.61-11.64,10.83-11.64Z"/>
    <path class="st0" d="M292.68,289.56v-16.19h30.67v-68.22h17.61v45.24c0,6.75,2.11,12.26,6.33,16.55,4.22,4.29,9.63,6.43,16.25,6.43h12.85v-68.22h17.61v45.24c0,6.75,2.11,12.26,6.33,16.55,4.22,4.29,9.63,6.43,16.25,6.43h12.85v-84.31h17.61v64.48c0,6.07,1.89,10.9,5.67,14.47,3.78,3.58,8.74,5.36,14.88,5.36h3.34v16.19h-.61c-11.54,0-19.3-3.95-23.28-11.84v11.84h-29.86c-11.61,0-19.33-3.95-23.18-11.84v11.84h-29.86c-11.61,0-19.33-3.95-23.18-11.84v11.84h-48.28Z"/>
    <path class="st0" d="M556.66,273.37c-5.4-5.8-9.75-18.46-13.06-37.96-2.09-12.21-5.04-20.65-8.86-25.3-3.81-4.66-9.56-6.98-17.26-6.98-9.31,0-19.33,2.77-30.06,8.3l-7.19-14.27c10.59-6.81,23.08-10.22,37.45-10.22,11.94,0,21.34,3.19,28.19,9.57,6.85,6.38,11.56,17.76,14.12,34.16,3.51,22.54,8.71,36.91,15.59,43.12v15.79h-108.81v-16.19h89.88ZM520.83,304.85c7.15,0,10.73,3.88,10.73,11.64s-3.58,11.54-10.73,11.54-10.73-3.85-10.73-11.54,3.58-11.64,10.73-11.64Z"/>
    <path class="st0" d="M681.46,273.37h18.12v16.19h-18.12v4.96c0,14.1-4.19,25.1-12.55,33-8.37,7.9-20.14,11.84-35.33,11.84-13.83,0-26.25-3.54-37.25-10.63l8.3-13.87c10.73,5.53,20.51,8.3,29.35,8.3s16.56-2.48,21.96-7.44c5.4-4.96,8.1-11.69,8.1-20.19v-5.97h-20.24c-14.71,0-26.1-4.06-34.16-12.2-8.06-8.13-12.1-19.82-12.1-35.07,0-16.46,5.2-29.45,15.59-38.97,10.39-9.51,24.12-14.27,41.2-14.27h27.13v84.31ZM654.94,205.15c-12.42,0-22.01,3.27-28.8,9.82-6.78,6.55-10.17,15.59-10.17,27.13,0,20.85,9.48,31.28,28.44,31.28h19.43v-68.22h-8.91Z"/>
    <path class="st0" d="M695.43,273.37h28.34v-141.3h18.42v121.46c0,6.07,1.87,10.9,5.62,14.47,3.75,3.58,8.72,5.36,14.93,5.36h7.49v16.19h-4.76c-11.54,0-19.3-3.95-23.28-11.84v11.84h-46.76v-16.19Z"/>
    <path class="st0" d="M766.08,273.37h28.34v-141.3h18.42v157.5h-46.76v-16.19Z"/>
    <path class="st0" d="M866.49,289.56h-18.42v-157.5h18.42v157.5Z"/>
    <path class="st0" d="M975.09,273.37c-4.59-7.62-6.88-17.92-6.88-30.87,0-16.26,4.47-29.59,13.41-39.98,8.94-10.39,20.7-15.59,35.27-15.59s25.42,4.42,34.16,13.26c8.74,8.84,13.11,21.09,13.11,36.74s-5.25,29.27-15.74,38.62c-10.49,9.35-23.77,14.02-39.83,14.02h-28.14c-9.85,0-14.78,5.06-14.78,15.18v10.93c0,16.19-2.97,27.53-8.91,34.01h-18.83c6.88-6.07,10.32-18.59,10.32-37.55v-10.53c0-8.98,2.43-15.92,7.29-20.85,4.86-4.92,10.86-7.39,18.02-7.39h1.52ZM993.92,273.37h14.68c11,0,19.91-3.42,26.72-10.27,6.81-6.85,10.22-15.64,10.22-26.37s-2.63-18.54-7.9-24.65c-5.26-6.11-12.18-9.16-20.75-9.16s-15.93,3.58-21.66,10.73c-5.74,7.15-8.6,16.77-8.6,28.85,0,13.9,2.43,24.19,7.29,30.87Z"/>
    <path class="st0" d="M1127.02,294.52c0,13.97-3.21,24.93-9.62,32.9-6.41,7.96-15.52,11.94-27.33,11.94-10.66,0-20.04-3.34-28.14-10.02l8.3-12.65c5.8,4.32,12.28,6.48,19.43,6.48,6.07,0,10.91-2.53,14.52-7.59,3.61-5.06,5.42-11.74,5.42-20.04v-106.48h17.41v64.48c0,6.07,1.89,10.9,5.67,14.47,3.78,3.58,8.74,5.36,14.88,5.36h3.24v16.19h-.61c-11.61,0-19.33-3.95-23.18-11.84v16.8ZM1117.91,146.74c7.15,0,10.73,3.88,10.73,11.64s-3.58,11.54-10.73,11.54-10.73-3.85-10.73-11.54,3.58-11.64,10.73-11.64Z"/>
    <path class="st0" d="M1146.76,289.56v-16.19h32.9c-9.79-8.77-14.68-21.05-14.68-36.84s4.5-28,13.51-36.64c9.01-8.64,20.93-12.96,35.78-12.96,11.07,0,20.68,2.02,28.85,6.07l-5.57,15.49c-8.5-3.58-16.6-5.36-24.29-5.36-19.64,0-29.46,11.4-29.46,34.21,0,10.66,2.34,19.33,7.04,26.01,4.69,6.68,10.85,10.02,18.47,10.02h36.95v16.19h-99.5Z"/>
  </g>
  <g>
    <path class="st1" d="M90.94,391.45h13.12l36.86,87.27h-13.61l-8.91-21.97h-42.72l-8.85,21.97h-13.12l37.23-87.27ZM97.04,403.23l-17.33,43.27h34.72l-17.39-43.27Z"/>
    <path class="st1" d="M179.06,468.47l36.74-44h-34.97v-9.46h48.58v10.19l-36.74,44h38.14v9.52h-51.75v-10.25Z"/>
    <path class="st1" d="M277.31,415.01h10.98v9.21h.24c2.24-3.74,4.98-6.47,8.24-8.18,3.25-1.71,7.26-2.56,12.02-2.56,3.66,0,7.18.98,10.56,2.93,3.42,1.99,5.94,5.15,7.57,9.46,1.06-2.28,2.42-4.21,4.09-5.8,1.67-1.59,3.43-2.87,5.28-3.84,1.85-.98,3.69-1.68,5.52-2.11,1.83-.43,3.44-.64,4.82-.64,4.07,0,7.51.62,10.31,1.86s5.09,2.95,6.83,5.13c1.75,2.18,3.02,4.75,3.81,7.72s1.19,6.18,1.19,9.64v40.89h-11.78v-38.02c0-1.95-.15-3.98-.46-6.07-.31-2.09-.86-4.01-1.68-5.74-.81-1.73-1.96-3.14-3.45-4.24-1.49-1.1-3.41-1.65-5.77-1.65-3.01,0-5.57.67-7.69,2.01-2.12,1.34-3.84,3.11-5.19,5.31-1.34,2.2-2.32,4.71-2.93,7.54-.61,2.83-.92,5.75-.92,8.76v32.1h-11.78v-38.02c0-1.95-.15-3.98-.46-6.07-.31-2.09-.87-4.01-1.68-5.74-.81-1.73-1.96-3.14-3.45-4.24-1.49-1.1-3.41-1.65-5.77-1.65-3.01,0-5.57.67-7.69,2.01-2.12,1.34-3.84,3.11-5.19,5.31-1.34,2.2-2.33,4.71-2.96,7.54-.63,2.83-.95,5.75-.95,8.76v32.1h-11.72v-63.71Z"/>
    <path class="st1" d="M486.75,391.45h12.51v76.28h36.49v10.98h-49v-87.27Z"/>
    <path class="st1" d="M575.23,446.86c0-4.84.78-9.31,2.35-13.39,1.57-4.09,3.76-7.61,6.59-10.56,2.83-2.95,6.24-5.26,10.25-6.93,4.01-1.67,8.45-2.5,13.33-2.5s9.25.83,13.24,2.5c3.99,1.67,7.39,3.98,10.22,6.93,2.83,2.95,5.01,6.47,6.56,10.56,1.55,4.09,2.32,8.55,2.32,13.39,0,4.56-.79,8.86-2.38,12.91-1.59,4.05-3.8,7.59-6.65,10.62-2.85,3.03-6.25,5.43-10.22,7.2s-8.33,2.65-13.09,2.65-9.19-.88-13.18-2.65c-3.99-1.77-7.41-4.17-10.28-7.2-2.87-3.03-5.1-6.57-6.68-10.62-1.59-4.05-2.38-8.35-2.38-12.91ZM587.74,446.86c0,2.81.4,5.64,1.19,8.48s2,5.41,3.63,7.69c1.63,2.28,3.7,4.13,6.22,5.55,2.52,1.42,5.51,2.14,8.97,2.14s6.38-.71,8.88-2.14,4.56-3.27,6.16-5.55c1.61-2.28,2.81-4.84,3.6-7.69s1.19-5.68,1.19-8.48c0-3.05-.45-6-1.34-8.85-.9-2.85-2.2-5.39-3.91-7.63-1.71-2.24-3.79-4.03-6.25-5.37-2.46-1.34-5.24-2.01-8.33-2.01s-5.94.67-8.42,2.01c-2.48,1.34-4.58,3.13-6.29,5.37-1.71,2.24-3.02,4.78-3.94,7.63-.92,2.85-1.37,5.8-1.37,8.85Z"/>
    <path class="st1" d="M743.42,475.97c0,9.72-2.62,17.23-7.87,22.52-5.25,5.33-13.57,7.99-24.96,7.99-1.67,0-3.32-.06-4.94-.18-1.63-.12-3.35-.33-5.16-.64-1.81-.3-3.76-.74-5.86-1.31-2.1-.57-4.4-1.32-6.93-2.26l1.28-10.86c2.28.98,4.34,1.83,6.19,2.56,1.85.73,3.65,1.33,5.4,1.8,1.75.47,3.53.81,5.34,1.04,1.81.22,3.81.33,6.01.33,6.26,0,11.13-1.97,14.58-5.92,3.46-3.87,5.19-9.17,5.19-15.93v-6.29h-.24c-2.44,3.29-5.61,5.78-9.52,7.44-3.78,1.63-7.73,2.44-11.84,2.44-4.6,0-8.6-.85-12.02-2.56-3.42-1.71-6.26-4.01-8.51-6.9-2.26-2.89-3.95-6.22-5.06-10.01-1.12-3.78-1.68-7.75-1.68-11.9,0-2.72.26-5.45.79-8.18.53-2.73,1.31-5.35,2.35-7.87,1.04-2.52,2.34-4.86,3.91-7.02,1.57-2.16,3.41-4.04,5.52-5.64,2.11-1.61,4.49-2.87,7.14-3.78,2.64-.92,5.57-1.37,8.79-1.37,2.81,0,5.32.24,7.54.73,2.22.49,4.18,1.2,5.89,2.14,1.71.94,3.18,2.08,4.42,3.45,1.24,1.36,2.29,2.92,3.14,4.67h.24v-9.46h10.86v60.96ZM713.09,469.2c2.73,0,5.24-.56,7.54-1.68,2.3-1.12,4.26-2.65,5.89-4.61,1.63-1.95,2.9-4.24,3.81-6.87.92-2.62,1.37-5.44,1.37-8.45,0-3.29-.39-6.44-1.16-9.43-.77-2.99-1.94-5.6-3.51-7.84-1.57-2.24-3.51-4.02-5.83-5.34-2.32-1.32-5.02-1.98-8.12-1.98s-5.56.72-7.78,2.17c-2.22,1.45-4.07,3.32-5.55,5.61-1.49,2.3-2.59,4.85-3.33,7.66-.73,2.81-1.1,5.57-1.1,8.3,0,3.01.41,5.87,1.22,8.57.81,2.71,1.98,5.09,3.51,7.14,1.53,2.05,3.39,3.69,5.58,4.91s4.68,1.83,7.45,1.83Z"/>
    <path class="st1" d="M808.65,400.73h-13.24v-13.24h13.24v13.24ZM796.14,415.01h11.78v63.71h-11.78v-63.71Z"/>
    <path class="st1" d="M855.89,466.21c1.18.77,2.44,1.44,3.78,2.01,1.34.57,2.67,1.04,4,1.4,1.32.37,2.58.64,3.78.82,1.2.18,2.23.27,3.08.27,1.3,0,2.66-.14,4.09-.43,1.42-.28,2.72-.78,3.88-1.5,1.16-.71,2.11-1.65,2.87-2.81.75-1.16,1.13-2.63,1.13-4.42,0-1.42-.4-2.68-1.19-3.78s-1.83-2.11-3.11-3.02-2.76-1.77-4.42-2.56c-1.67-.79-3.36-1.63-5.06-2.5-1.71-.87-3.4-1.81-5.06-2.81-1.67-1-3.14-2.15-4.42-3.45-1.28-1.3-2.32-2.8-3.11-4.49-.79-1.69-1.19-3.65-1.19-5.89,0-3.3.57-6.17,1.71-8.63,1.14-2.46,2.72-4.51,4.73-6.13,2.01-1.63,4.39-2.84,7.14-3.63,2.75-.79,5.71-1.19,8.88-1.19,2.81,0,5.37.25,7.69.76s4.64,1.09,6.96,1.74l-.98,10.25c-.69-.41-1.6-.8-2.72-1.19-1.12-.39-2.29-.73-3.51-1.04-1.22-.3-2.39-.55-3.51-.73-1.12-.18-2-.27-2.65-.27-3.05,0-5.7.63-7.93,1.89-2.24,1.22-3.36,3.17-3.36,5.86,0,1.63.4,3.02,1.19,4.18.79,1.16,1.84,2.18,3.14,3.05,1.3.88,2.78,1.69,4.42,2.44,1.65.75,3.33,1.56,5.03,2.41,1.71.81,3.4,1.7,5.06,2.65,1.67.96,3.14,2.11,4.42,3.45,1.28,1.34,2.33,2.94,3.14,4.79.81,1.85,1.22,4.06,1.22,6.62,0,3.42-.63,6.38-1.89,8.88-1.26,2.5-2.93,4.57-5,6.19s-4.45,2.84-7.11,3.63c-2.67.79-5.42,1.19-8.27,1.19s-5.95-.23-8.94-.7c-2.99-.47-5.83-1.41-8.51-2.84l.61-10.5Z"/>
    <path class="st1" d="M974.4,424.47h-16.9v34.91c0,3.78.98,6.61,2.93,8.48,2.03,1.91,4.35,2.87,6.96,2.87,1.83,0,3.4-.23,4.7-.7,1.3-.47,2.4-.99,3.3-1.56v10.01c-1.34.41-2.86.8-4.55,1.19-1.69.39-3.51.58-5.46.58-6.1,0-10.88-1.49-14.34-4.45-3.5-3.01-5.25-7.71-5.25-14.1v-37.22h-14.4v-9.46h14.4v-14.77l11.72-3.78v18.55h16.9v9.46Z"/>
    <path class="st1" d="M1034.38,400.73h-13.24v-13.24h13.24v13.24ZM1021.87,415.01h11.78v63.71h-11.78v-63.71Z"/>
    <path class="st1" d="M1126.84,425.75c-2.24-.94-4.43-1.63-6.59-2.08-2.16-.45-4.21-.67-6.16-.67-3.26,0-6.14.67-8.67,2.01-2.52,1.34-4.66,3.13-6.41,5.37-1.75,2.24-3.08,4.78-4,7.63-.92,2.85-1.37,5.8-1.37,8.85,0,2.81.4,5.64,1.19,8.48s2.04,5.41,3.75,7.69c1.71,2.28,3.91,4.13,6.59,5.55,2.69,1.42,5.92,2.14,9.7,2.14,1.99,0,4.14-.31,6.44-.95,2.3-.63,4.36-1.51,6.19-2.65l.85,10.5c-2.44,1.14-4.96,1.86-7.57,2.17-2.6.3-5,.46-7.2.46-4.8,0-9.18-.88-13.15-2.65s-7.38-4.17-10.25-7.2c-2.87-3.03-5.1-6.57-6.68-10.62-1.59-4.05-2.38-8.35-2.38-12.91,0-4.84.78-9.31,2.35-13.39,1.57-4.09,3.76-7.61,6.59-10.56,2.83-2.95,6.23-5.26,10.22-6.93,3.99-1.67,8.42-2.5,13.3-2.5,2.52,0,5.08.26,7.69.79,2.85.49,5.04,1.06,6.59,1.71l-1.04,9.76Z"/>
    <path class="st1" d="M1168.33,466.21c1.18.77,2.44,1.44,3.78,2.01,1.34.57,2.67,1.04,4,1.4,1.32.37,2.58.64,3.78.82,1.2.18,2.23.27,3.08.27,1.3,0,2.66-.14,4.09-.43,1.42-.28,2.72-.78,3.88-1.5,1.16-.71,2.12-1.65,2.87-2.81s1.13-2.63,1.13-4.42c0-1.42-.4-2.68-1.19-3.78s-1.83-2.11-3.11-3.02-2.76-1.77-4.42-2.56c-1.67-.79-3.36-1.63-5.07-2.5-1.71-.87-3.4-1.81-5.07-2.81s-3.14-2.15-4.42-3.45c-1.28-1.3-2.32-2.8-3.11-4.49-.79-1.69-1.19-3.65-1.19-5.89,0-3.3.57-6.17,1.71-8.63,1.14-2.46,2.72-4.51,4.73-6.13,2.01-1.63,4.39-2.84,7.14-3.63,2.75-.79,5.71-1.19,8.88-1.19,2.81,0,5.37.25,7.69.76,2.32.51,4.64,1.09,6.96,1.74l-.98,10.25c-.69-.41-1.6-.8-2.72-1.19-1.12-.39-2.29-.73-3.51-1.04-1.22-.3-2.39-.55-3.51-.73-1.12-.18-2-.27-2.65-.27-3.05,0-5.7.63-7.93,1.89-2.24,1.22-3.36,3.17-3.36,5.86,0,1.63.4,3.02,1.19,4.18.79,1.16,1.84,2.18,3.14,3.05,1.3.88,2.78,1.69,4.42,2.44,1.65.75,3.33,1.56,5.04,2.41,1.71.81,3.4,1.7,5.06,2.65,1.67.96,3.14,2.11,4.42,3.45s2.33,2.94,3.14,4.79c.81,1.85,1.22,4.06,1.22,6.62,0,3.42-.63,6.38-1.89,8.88-1.26,2.5-2.93,4.57-5,6.19-2.08,1.63-4.45,2.84-7.11,3.63-2.67.79-5.42,1.19-8.27,1.19s-5.95-.23-8.94-.7c-2.99-.47-5.83-1.41-8.51-2.84l.61-10.5Z"/>
  </g>
  <path class="st1" d="M1564.5,151.37v75.16c-226.18,99.5-274.97,283.29-189.33,352.88-150.05-104.21-65.46-331.85,189.33-428.04Z"/>
  <path class="st0" d="M1564.5,27.56v73.28c-166.86,57.94-244.69,168.15-242.14,252.33-56.68-114.61,34.65-263.26,242.14-325.61Z"/>
  <path class="st0" d="M1508.65,600.64c-163.59-52-138.43-163.34-138.02-167.86-5.36,13.71-8.76,26.86-10.4,39.1-5.13,37.87,6.43,71.05,30.08,91.48,30.32,26.19,71.91,36.26,118.34,37.28h0Z"/>
</svg>